<svg version="1.1" id="Layer_1" xmlns="http://www.w3.org/2000/svg" xmlns:xlink="http://www.w3.org/1999/xlink" x="0px" y="0px"
	 width="100%" viewBox="0 0 468 361" enable-background="new 0 0 468 361" xml:space="preserve">
<path fill="#000000" opacity="1.000000" stroke="none" 
	d="
M244.000000,362.000000 
	C162.666672,362.000000 81.833351,362.000000 1.000022,362.000000 
	C1.000015,241.666687 1.000015,121.333382 1.000007,1.000054 
	C156.999954,1.000036 312.999908,1.000036 468.999908,1.000018 
	C468.999939,121.333275 468.999939,241.666550 468.999969,361.999908 
	C394.166656,362.000000 319.333344,362.000000 244.000000,362.000000 
M238.457138,152.040817 
	C232.163712,160.222412 229.200546,169.425415 229.758469,179.703369 
	C230.967941,177.619171 231.601654,175.347092 231.986969,173.033661 
	C233.825974,161.992157 241.382889,153.042068 250.658463,152.134369 
	C259.897949,151.230194 268.920044,152.491272 277.789764,155.840317 
	C293.392395,161.731613 307.522308,170.234619 321.545898,179.023590 
	C327.704498,182.883347 332.283844,182.757782 335.688507,178.801865 
	C338.539490,175.489273 338.459381,169.999191 336.167206,166.414444 
	C334.253754,166.914383 332.255524,168.119553 331.358307,167.559860 
	C325.596558,163.965439 319.225128,160.788773 314.658295,155.958160 
	C305.877991,146.670685 298.018555,136.490097 290.071869,126.446732 
	C286.199127,121.552147 282.989655,116.132729 279.479950,110.950874 
	C279.824188,110.564079 280.168427,110.177284 280.512665,109.790497 
	C283.641479,110.497620 286.814362,111.051506 289.891937,111.936798 
	C309.371887,117.540459 326.996185,127.340866 344.893524,136.491180 
	C358.352448,143.372284 372.087189,148.940598 387.627686,145.939285 
	C397.148865,144.100464 404.364838,138.836685 409.468079,129.737656 
	C406.016754,130.227676 403.318237,130.797089 400.594818,130.966858 
	C384.421967,131.975021 369.979797,125.862587 355.872742,119.262451 
	C341.197540,112.396523 327.155029,104.173653 312.453979,97.369217 
	C301.404541,92.254974 289.644623,88.574600 277.161682,90.080002 
	C267.248474,91.275505 261.911987,97.496841 264.535095,106.533394 
	C266.265747,112.495392 269.659485,118.126564 273.078766,123.407166 
	C277.161713,129.712646 282.066986,135.485626 287.324921,142.424759 
	C268.664276,136.504288 252.311096,136.692703 238.457138,152.040817 
M202.288116,267.889099 
	C214.408600,260.897827 219.684982,249.825974 219.900558,236.417572 
	C220.253952,214.435974 220.005936,192.444595 219.990799,170.457367 
	C219.989594,168.712692 219.826981,166.968124 219.749039,165.416077 
	C216.507339,165.416077 213.929565,165.416077 210.706940,165.416077 
	C210.706940,169.943817 210.706940,174.079895 210.706940,179.266159 
	C202.440170,170.431747 194.563721,163.436935 182.759155,162.924057 
	C171.616470,162.439941 161.450729,164.453079 152.709122,171.808075 
	C133.918243,187.618271 133.255020,209.334778 144.522263,225.640549 
	C151.905457,236.325409 162.938644,242.033661 176.115067,242.563065 
	C189.815292,243.113495 201.190384,237.734573 210.992584,226.499893 
	C210.992584,231.313919 211.207504,234.632568 210.950928,237.914352 
	C210.272858,246.586746 207.570602,254.499405 199.914383,259.421906 
	C191.045654,265.124023 181.066254,266.262207 170.857513,264.374756 
	C162.543823,262.837708 155.241852,259.299133 150.314148,251.920197 
	C147.427994,247.598419 143.262787,249.120132 139.174164,249.396378 
	C147.210693,273.364929 180.721741,278.854126 202.288116,267.889099 
M119.192429,136.023056 
	C99.927399,136.023056 80.662369,136.023056 61.452175,136.023056 
	C61.452175,172.339920 61.452175,208.035416 61.452175,243.613464 
	C81.811989,243.613464 101.723846,243.613464 121.705032,243.613464 
	C121.705032,240.306488 121.705032,237.386124 121.705032,233.830688 
	C104.718018,233.830688 88.006638,233.830688 71.318832,233.830688 
	C71.318832,219.265121 71.318832,205.345627 71.318832,190.843918 
	C73.414284,190.843918 75.206566,190.843781 76.998856,190.843933 
	C90.328415,190.845078 103.661156,190.683716 116.985641,190.944351 
	C121.101212,191.024857 122.467064,189.591110 122.000664,185.764023 
	C121.826248,184.332825 121.763649,182.887985 121.610977,180.954391 
	C104.711060,180.954391 88.131279,180.954391 71.396667,180.954391 
	C71.396667,169.059174 71.396667,157.696014 71.396667,145.841873 
	C88.377007,145.841873 104.962814,145.841873 122.950630,145.841873 
	C121.856964,142.054901 120.992447,139.061371 119.192429,136.023056 
M236.492538,234.148651 
	C237.083450,235.682220 237.249451,237.677902 238.333710,238.674957 
	C245.821030,245.559906 254.773972,248.659729 264.629944,245.806870 
	C277.451782,242.095505 285.153015,229.941696 280.983795,216.656464 
	C278.195801,207.772385 270.548462,203.959579 263.294891,199.622452 
	C258.652405,196.846573 254.001633,193.896606 249.979691,190.321457 
	C245.561218,186.393845 245.784317,179.980576 249.669495,175.663727 
	C255.073639,169.659149 262.708679,169.418106 271.038116,174.989120 
	C276.794495,178.839188 277.327271,178.706818 280.807709,172.497711 
	C273.569458,163.984802 264.018921,161.053085 253.597565,163.469864 
	C246.545288,165.105316 240.524704,170.167511 239.228012,177.806030 
	C237.665665,187.009293 239.362061,195.691849 248.362717,201.100204 
	C254.288742,204.661041 260.334381,208.031555 266.161407,211.746170 
	C272.730499,215.933838 274.901917,222.870941 271.951782,229.147552 
	C268.658264,236.154694 261.088135,239.874374 253.901703,237.291824 
	C249.211349,235.606293 244.909866,232.838684 239.808456,230.236633 
	C239.116837,231.059891 238.046295,232.334183 236.492538,234.148651 
z"/>
<path fill="#E30512" opacity="1.000000" stroke="none" 
	d="
M238.716583,151.789825 
	C252.311096,136.692703 268.664276,136.504288 287.324921,142.424759 
	C282.066986,135.485626 277.161713,129.712646 273.078766,123.407166 
	C269.659485,118.126564 266.265747,112.495392 264.535095,106.533394 
	C261.911987,97.496841 267.248474,91.275505 277.161682,90.080002 
	C289.644623,88.574600 301.404541,92.254974 312.453979,97.369217 
	C327.155029,104.173653 341.197540,112.396523 355.872742,119.262451 
	C369.979797,125.862587 384.421967,131.975021 400.594818,130.966858 
	C403.318237,130.797089 406.016754,130.227676 409.468079,129.737656 
	C404.364838,138.836685 397.148865,144.100464 387.627686,145.939285 
	C372.087189,148.940598 358.352448,143.372284 344.893524,136.491180 
	C326.996185,127.340866 309.371887,117.540459 289.891937,111.936798 
	C286.814362,111.051506 283.641479,110.497620 280.512665,109.790497 
	C280.168427,110.177284 279.824188,110.564079 279.479950,110.950874 
	C282.989655,116.132729 286.199127,121.552147 290.071869,126.446732 
	C298.018555,136.490097 305.877991,146.670685 314.658295,155.958160 
	C319.225128,160.788773 325.596558,163.965439 331.358307,167.559860 
	C332.255524,168.119553 334.253754,166.914383 336.167206,166.414444 
	C338.459381,169.999191 338.539490,175.489273 335.688507,178.801865 
	C332.283844,182.757782 327.704498,182.883347 321.545898,179.023590 
	C307.522308,170.234619 293.392395,161.731613 277.789764,155.840317 
	C268.920044,152.491272 259.897949,151.230194 250.658463,152.134369 
	C241.382889,153.042068 233.825974,161.992157 231.986969,173.033661 
	C231.601654,175.347092 230.967941,177.619171 229.758469,179.703369 
	C229.200546,169.425415 232.163712,160.222412 238.716583,151.789825 
z"/>
<path fill="#706F6F" opacity="1.000000" stroke="none" 
	d="
M201.927094,267.998413 
	C180.721741,278.854126 147.210693,273.364929 139.174164,249.396378 
	C143.262787,249.120132 147.427994,247.598419 150.314148,251.920197 
	C155.241852,259.299133 162.543823,262.837708 170.857513,264.374756 
	C181.066254,266.262207 191.045654,265.124023 199.914383,259.421906 
	C207.570602,254.499405 210.272858,246.586746 210.950928,237.914352 
	C211.207504,234.632568 210.992584,231.313919 210.992584,226.499893 
	C201.190384,237.734573 189.815292,243.113495 176.115067,242.563065 
	C162.938644,242.033661 151.905457,236.325409 144.522263,225.640549 
	C133.255020,209.334778 133.918243,187.618271 152.709122,171.808075 
	C161.450729,164.453079 171.616470,162.439941 182.759155,162.924057 
	C194.563721,163.436935 202.440170,170.431747 210.706940,179.266159 
	C210.706940,174.079895 210.706940,169.943817 210.706940,165.416077 
	C213.929565,165.416077 216.507339,165.416077 219.749039,165.416077 
	C219.826981,166.968124 219.989594,168.712692 219.990799,170.457367 
	C220.005936,192.444595 220.253952,214.435974 219.900558,236.417572 
	C219.684982,249.825974 214.408600,260.897827 201.927094,267.998413 
M152.426407,221.030487 
	C159.402634,231.194885 169.596664,234.464569 181.240051,233.949936 
	C202.217972,233.022705 215.653137,216.045807 210.051025,194.484848 
	C205.680344,177.663254 191.136841,169.424133 173.742752,171.930313 
	C152.610596,174.975082 138.624298,201.522339 152.426407,221.030487 
z"/>
<path fill="#706F6F" opacity="1.000000" stroke="none" 
	d="
M119.660172,136.045456 
	C120.992447,139.061371 121.856964,142.054901 122.950630,145.841873 
	C104.962814,145.841873 88.377007,145.841873 71.396667,145.841873 
	C71.396667,157.696014 71.396667,169.059174 71.396667,180.954391 
	C88.131279,180.954391 104.711060,180.954391 121.610977,180.954391 
	C121.763649,182.887985 121.826248,184.332825 122.000664,185.764023 
	C122.467064,189.591110 121.101212,191.024857 116.985641,190.944351 
	C103.661156,190.683716 90.328415,190.845078 76.998856,190.843933 
	C75.206566,190.843781 73.414284,190.843918 71.318832,190.843918 
	C71.318832,205.345627 71.318832,219.265121 71.318832,233.830688 
	C88.006638,233.830688 104.718018,233.830688 121.705032,233.830688 
	C121.705032,237.386124 121.705032,240.306488 121.705032,243.613464 
	C101.723846,243.613464 81.811989,243.613464 61.452175,243.613464 
	C61.452175,208.035416 61.452175,172.339920 61.452175,136.023056 
	C80.662369,136.023056 99.927399,136.023056 119.660172,136.045456 
z"/>
<path fill="#706F6F" opacity="1.000000" stroke="none" 
	d="
M236.734146,233.878571 
	C238.046295,232.334183 239.116837,231.059891 239.808456,230.236633 
	C244.909866,232.838684 249.211349,235.606293 253.901703,237.291824 
	C261.088135,239.874374 268.658264,236.154694 271.951782,229.147552 
	C274.901917,222.870941 272.730499,215.933838 266.161407,211.746170 
	C260.334381,208.031555 254.288742,204.661041 248.362717,201.100204 
	C239.362061,195.691849 237.665665,187.009293 239.228012,177.806030 
	C240.524704,170.167511 246.545288,165.105316 253.597565,163.469864 
	C264.018921,161.053085 273.569458,163.984802 280.807709,172.497711 
	C277.327271,178.706818 276.794495,178.839188 271.038116,174.989120 
	C262.708679,169.418106 255.073639,169.659149 249.669495,175.663727 
	C245.784317,179.980576 245.561218,186.393845 249.979691,190.321457 
	C254.001633,193.896606 258.652405,196.846573 263.294891,199.622452 
	C270.548462,203.959579 278.195801,207.772385 280.983795,216.656464 
	C285.153015,229.941696 277.451782,242.095505 264.629944,245.806870 
	C254.773972,248.659729 245.821030,245.559906 238.333710,238.674957 
	C237.249451,237.677902 237.083450,235.682220 236.734146,233.878571 
z"/>
<path fill="#000000" opacity="1.000000" stroke="none" 
	d="
M152.182999,220.751831 
	C138.624298,201.522339 152.610596,174.975082 173.742752,171.930313 
	C191.136841,169.424133 205.680344,177.663254 210.051025,194.484848 
	C215.653137,216.045807 202.217972,233.022705 181.240051,233.949936 
	C169.596664,234.464569 159.402634,231.194885 152.182999,220.751831 
z"/>
</svg>